#Comment line ignore any data following # character 
#Hierarchical Translation and Rotation (.htr) file 
[Header]	
#Header keywords are followed by a single value 
FileType HTR		#Single word string
DataType HTRS		#Translation followed by rotation and scale data
FileVersion 1		#integer
NumSegments 84		#integer
NumFrames 2		#integer
DataFrameRate 30		#integer, data frame rate in this file
EulerRotationOrder ZYX
CalibrationUnits mm
RotationUnits Degrees
GlobalAxisofGravity Y
BoneLengthAxis Y
ScaleFactor 1.00
[SegmentNames&Hierarchy]
#CHILD	PARENT
MASTER GLOBAL
root MASTER
chest root
L_mid_tent01 root
R_mid_tent01 root
spine01 root
Bip01_Neck chest
L_humerus chest
R_humerus chest
weapon_bone chest
Bip01_Head Bip01_Neck
eye_left_bone Bip01_Head
eye_right_bone Bip01_Head
L_forearm L_humerus
L_front_hand L_forearm
L_weapon_bone L_forearm
L_front_hand01_01 L_front_hand
L_front_hand02_01 L_front_hand
L_front_hand03_01 L_front_hand
L_front_hand01_02 L_front_hand01_01
L_front_hand02_02 L_front_hand02_01
L_front_hand03_02 L_front_hand03_01
R_forearm R_humerus
R_front_hand R_forearm
R_weapon_bone R_forearm
R_front_hand01_01 R_front_hand
R_front_hand02_01 R_front_hand
R_front_hand03_01 R_front_hand
R_front_hand01_02 R_front_hand01_01
R_front_hand02_02 R_front_hand02_01
R_front_hand03_02 R_front_hand03_01
null_rope01_connect L_mid_tent01
Rope1_Seg01 null_rope01_connect
Rope1_Seg02 Rope1_Seg01
Rope1_Seg03 Rope1_Seg02
Rope1_Seg04 Rope1_Seg03
Rope1_Seg05 Rope1_Seg04
Rope1_Seg06 Rope1_Seg05
Rope1_Seg07 Rope1_Seg06
Rope1_Seg09 Rope1_Seg07
L_mid_hand01 Rope1_Seg09
L_mid_hand02 Rope1_Seg09
L_mid_hand03 Rope1_Seg09
null_rope02_connect R_mid_tent01
Rope2_Seg01 null_rope02_connect
Rope2_Seg02 Rope2_Seg01
Rope2_Seg03 Rope2_Seg02
Rope2_Seg04 Rope2_Seg03
Rope2_Seg05 Rope2_Seg04
Rope2_Seg06 Rope2_Seg05
Rope2_Seg07 Rope2_Seg06
Rope2_Seg09 Rope2_Seg07
R_mid_hand01 Rope2_Seg09
R_mid_hand02 Rope2_Seg09
R_mid_hand03 Rope2_Seg09
spine02 spine01
spine03 spine02
pelvis spine03
null_rope03_connect pelvis
null_rope04_connect pelvis
Rope3_Seg01 null_rope03_connect
Rope3_Seg02 Rope3_Seg01
Rope3_Seg03 Rope3_Seg02
Rope3_Seg04 Rope3_Seg03
Rope3_Seg05 Rope3_Seg04
Rope3_Seg06 Rope3_Seg05
Rope3_Seg07 Rope3_Seg06
Rope3_Seg08 Rope3_Seg07
Rope3_Seg09 Rope3_Seg08
R_rear_hand01 Rope3_Seg09
R_rear_hand02 Rope3_Seg09
R_rear_hand03 Rope3_Seg09
Rope4_Seg01 null_rope04_connect
Rope4_Seg02 Rope4_Seg01
Rope4_Seg03 Rope4_Seg02
Rope4_Seg04 Rope4_Seg03
Rope4_Seg05 Rope4_Seg04
Rope4_Seg06 Rope4_Seg05
Rope4_Seg07 Rope4_Seg06
Rope4_Seg08 Rope4_Seg07
Rope4_Seg09 Rope4_Seg08
L_rear_hand01 Rope4_Seg09
L_rear_hand02 Rope4_Seg09
L_rear_hand03 Rope4_Seg09
[BasePosition]
#SegmentName Tx, Ty, Tz, Rx, Ry, Rz, BoneLength
MASTER 0.000000 0.000000 0.000000 -90.000000 0.000000 0.000000 10.000000 
root 0.000000 0.000000 0.000000 0.000000 0.000000 0.000000 10.000000 
chest 0.000000 0.000000 0.000000 0.000000 0.000000 0.000000 10.000000 
L_mid_tent01 0.000000 0.000000 0.000000 0.000000 0.000000 0.000000 10.000000 
R_mid_tent01 0.000000 0.000000 0.000000 0.000000 0.000000 0.000000 10.000000 
spine01 0.000000 0.000000 0.000000 0.000000 0.000000 0.000000 10.000000 
Bip01_Neck 0.000000 0.000000 0.000000 0.000000 0.000000 0.000000 10.000000 
L_humerus 0.000000 0.000000 0.000000 0.000000 0.000000 0.000000 10.000000 
R_humerus 0.000000 0.000000 0.000000 0.000000 0.000000 0.000000 10.000000 
weapon_bone 0.000000 0.000000 0.000000 0.000000 0.000000 0.000000 10.000000 
Bip01_Head 0.000000 0.000000 0.000000 0.000000 0.000000 0.000000 10.000000 
eye_left_bone 0.000000 0.000000 0.000000 0.000000 0.000000 0.000000 10.000000 
eye_right_bone 0.000000 0.000000 0.000000 0.000000 0.000000 0.000000 10.000000 
L_forearm 0.000000 0.000000 0.000000 0.000000 0.000000 0.000000 10.000000 
L_front_hand 0.000000 0.000000 0.000000 0.000000 0.000000 0.000000 10.000000 
L_weapon_bone 0.000000 0.000000 0.000000 0.000000 0.000000 0.000000 10.000000 
L_front_hand01_01 0.000000 0.000000 0.000000 0.000000 0.000000 0.000000 10.000000 
L_front_hand02_01 0.000000 0.000000 0.000000 0.000000 0.000000 0.000000 10.000000 
L_front_hand03_01 0.000000 0.000000 0.000000 0.000000 0.000000 0.000000 10.000000 
L_front_hand01_02 0.000000 0.000000 0.000000 0.000000 0.000000 0.000000 10.000000 
L_front_hand02_02 0.000000 0.000000 0.000000 0.000000 0.000000 0.000000 10.000000 
L_front_hand03_02 0.000000 0.000000 0.000000 0.000000 0.000000 0.000000 10.000000 
R_forearm 0.000000 0.000000 0.000000 0.000000 0.000000 0.000000 10.000000 
R_front_hand 0.000000 0.000000 0.000000 0.000000 0.000000 0.000000 10.000000 
R_weapon_bone 0.000000 0.000000 0.000000 0.000000 0.000000 0.000000 10.000000 
R_front_hand01_01 0.000000 0.000000 0.000000 0.000000 0.000000 0.000000 10.000000 
R_front_hand02_01 0.000000 0.000000 0.000000 0.000000 0.000000 0.000000 10.000000 
R_front_hand03_01 0.000000 0.000000 0.000000 0.000000 0.000000 0.000000 10.000000 
R_front_hand01_02 0.000000 0.000000 0.000000 0.000000 0.000000 0.000000 10.000000 
R_front_hand02_02 0.000000 0.000000 0.000000 0.000000 0.000000 0.000000 10.000000 
R_front_hand03_02 0.000000 0.000000 0.000000 0.000000 0.000000 0.000000 10.000000 
null_rope01_connect 0.000000 0.000000 0.000000 0.000000 0.000000 0.000000 10.000000 
Rope1_Seg01 0.000000 0.000000 0.000000 0.000000 0.000000 0.000000 10.000000 
Rope1_Seg02 0.000000 0.000000 0.000000 0.000000 0.000000 0.000000 10.000000 
Rope1_Seg03 0.000000 0.000000 0.000000 0.000000 0.000000 0.000000 10.000000 
Rope1_Seg04 0.000000 0.000000 0.000000 0.000000 0.000000 0.000000 10.000000 
Rope1_Seg05 0.000000 0.000000 0.000000 0.000000 0.000000 0.000000 10.000000 
Rope1_Seg06 0.000000 0.000000 0.000000 0.000000 0.000000 0.000000 10.000000 
Rope1_Seg07 0.000000 0.000000 0.000000 0.000000 0.000000 0.000000 10.000000 
Rope1_Seg09 0.000000 0.000000 0.000000 0.000000 0.000000 0.000000 10.000000 
L_mid_hand01 0.000000 0.000000 0.000000 0.000000 0.000000 0.000000 10.000000 
L_mid_hand02 0.000000 0.000000 0.000000 0.000000 0.000000 0.000000 10.000000 
L_mid_hand03 0.000000 0.000000 0.000000 0.000000 0.000000 0.000000 10.000000 
null_rope02_connect 0.000000 0.000000 0.000000 0.000000 0.000000 0.000000 10.000000 
Rope2_Seg01 0.000000 0.000000 0.000000 0.000000 0.000000 0.000000 10.000000 
Rope2_Seg02 0.000000 0.000000 0.000000 0.000000 0.000000 0.000000 10.000000 
Rope2_Seg03 0.000000 0.000000 0.000000 0.000000 0.000000 0.000000 10.000000 
Rope2_Seg04 0.000000 0.000000 0.000000 0.000000 0.000000 0.000000 10.000000 
Rope2_Seg05 0.000000 0.000000 0.000000 0.000000 0.000000 0.000000 10.000000 
Rope2_Seg06 0.000000 0.000000 0.000000 0.000000 0.000000 0.000000 10.000000 
Rope2_Seg07 0.000000 0.000000 0.000000 0.000000 0.000000 0.000000 10.000000 
Rope2_Seg09 0.000000 0.000000 0.000000 0.000000 0.000000 0.000000 10.000000 
R_mid_hand01 0.000000 0.000000 0.000000 0.000000 0.000000 0.000000 10.000000 
R_mid_hand02 0.000000 0.000000 0.000000 0.000000 0.000000 0.000000 10.000000 
R_mid_hand03 0.000000 0.000000 0.000000 0.000000 0.000000 0.000000 10.000000 
spine02 0.000000 0.000000 0.000000 0.000000 0.000000 0.000000 10.000000 
spine03 0.000000 0.000000 0.000000 0.000000 0.000000 0.000000 10.000000 
pelvis 0.000000 0.000000 0.000000 0.000000 0.000000 0.000000 10.000000 
null_rope03_connect 0.000000 0.000000 0.000000 0.000000 0.000000 0.000000 10.000000 
null_rope04_connect 0.000000 0.000000 0.000000 0.000000 0.000000 0.000000 10.000000 
Rope3_Seg01 0.000000 0.000000 0.000000 0.000000 0.000000 0.000000 10.000000 
Rope3_Seg02 0.000000 0.000000 0.000000 0.000000 0.000000 0.000000 10.000000 
Rope3_Seg03 0.000000 0.000000 0.000000 0.000000 0.000000 0.000000 10.000000 
Rope3_Seg04 0.000000 0.000000 0.000000 0.000000 0.000000 0.000000 10.000000 
Rope3_Seg05 0.000000 0.000000 0.000000 0.000000 0.000000 0.000000 10.000000 
Rope3_Seg06 0.000000 0.000000 0.000000 0.000000 0.000000 0.000000 10.000000 
Rope3_Seg07 0.000000 0.000000 0.000000 0.000000 0.000000 0.000000 10.000000 
Rope3_Seg08 0.000000 0.000000 0.000000 0.000000 0.000000 0.000000 10.000000 
Rope3_Seg09 0.000000 0.000000 0.000000 0.000000 0.000000 0.000000 10.000000 
R_rear_hand01 0.000000 0.000000 0.000000 0.000000 0.000000 0.000000 10.000000 
R_rear_hand02 0.000000 0.000000 0.000000 0.000000 0.000000 0.000000 10.000000 
R_rear_hand03 0.000000 0.000000 0.000000 0.000000 0.000000 0.000000 10.000000 
Rope4_Seg01 0.000000 0.000000 0.000000 0.000000 0.000000 0.000000 10.000000 
Rope4_Seg02 0.000000 0.000000 0.000000 0.000000 0.000000 0.000000 10.000000 
Rope4_Seg03 0.000000 0.000000 0.000000 0.000000 0.000000 0.000000 10.000000 
Rope4_Seg04 0.000000 0.000000 0.000000 0.000000 0.000000 0.000000 10.000000 
Rope4_Seg05 0.000000 0.000000 0.000000 0.000000 0.000000 0.000000 10.000000 
Rope4_Seg06 0.000000 0.000000 0.000000 0.000000 0.000000 0.000000 10.000000 
Rope4_Seg07 0.000000 0.000000 0.000000 0.000000 0.000000 0.000000 10.000000 
Rope4_Seg08 0.000000 0.000000 0.000000 0.000000 0.000000 0.000000 10.000000 
Rope4_Seg09 0.000000 0.000000 0.000000 0.000000 0.000000 0.000000 10.000000 
L_rear_hand01 0.000000 0.000000 0.000000 0.000000 0.000000 0.000000 10.000000 
L_rear_hand02 0.000000 0.000000 0.000000 0.000000 0.000000 0.000000 10.000000 
L_rear_hand03 0.000000 0.000000 0.000000 0.000000 0.000000 0.000000 10.000000 
#Beginning of Data. Separated by tabs
#Fr	Tx	Ty	Tz	Rx	Ry	Rz	SF
[MASTER]
8 0.000000 0.000000 0.000000 0.001660 0.001660 0.001660 0.000000
9 0.000000 0.000000 0.000000 0.001660 0.001660 0.001660 0.000000
[root]
8 11.863673 -150.020477 1939.684937 -107.671127 -27.488760 -57.016182 1945.514038
9 19.120407 -157.946396 1990.878662 -109.418427 -27.627188 -56.833771 1997.225708
[chest]
8 -84.512650 -34.090519 0.000000 -2.710302 3.999079 176.913498 91.129311
9 -84.512650 -34.090519 0.000000 -2.747428 3.669062 175.954773 91.129311
[L_mid_tent01]
8 27.300282 22.176413 -249.918762 -30.485975 50.293690 40.897324 252.381638
9 27.300240 22.176508 -249.918762 -39.398613 51.456139 30.857672 252.381638
[R_mid_tent01]
8 23.228794 24.509907 226.238495 144.574982 -66.469536 111.303757 228.744751
9 23.228794 24.509907 226.238495 142.804382 -68.088585 115.359230 228.744751
[spine01]
8 -0.361383 -0.195265 0.000000 0.001940 0.001321 21.523027 0.410763
9 -0.361383 -0.195265 0.000000 0.001940 0.001322 21.462627 0.410763
[Bip01_Neck]
8 165.484543 71.581718 0.000119 175.896118 1.177290 24.871183 180.302734
9 165.484543 71.581718 0.000119 175.896118 1.177290 24.871183 180.302734
[L_humerus]
8 -13.983130 -135.272980 -120.471481 146.787659 64.533676 -123.845322 181.680161
9 -13.983130 -135.272980 -120.471481 151.455841 71.640877 -115.663338 181.680161
[R_humerus]
8 -13.983309 -135.273102 125.287651 142.044632 -46.411095 -23.337944 184.909012
9 -13.983309 -135.273102 125.287651 135.999878 -43.537476 -11.306823 184.909012
[weapon_bone]
8 235.964890 -300.705902 0.000000 0.000000 -89.951546 -128.212341 382.234833
9 235.964890 -300.705902 0.000000 0.000000 -89.951546 -128.212341 382.234833
[Bip01_Head]
8 220.034012 129.348892 6.528815 -30.481800 0.643199 -55.507095 255.320831
9 223.106613 125.315994 6.059646 -33.955887 0.552361 -54.722141 255.963623
[eye_left_bone]
8 34.440968 157.625198 -75.381378 -148.345657 -88.348152 49.193390 178.084915
9 34.788311 157.872772 -75.460350 -146.448242 -88.235634 47.289818 178.404877
[eye_right_bone]
8 36.824036 159.559296 53.647594 31.678469 -88.351585 49.170834 172.317276
9 37.380371 159.797089 53.560219 33.543430 -88.237862 47.298065 172.629944
[L_forearm]
8 322.776093 0.000000 -0.000119 0.000240 -0.002335 -101.755974 322.776093
9 322.776093 0.000000 -0.000119 0.000176 -0.002341 -98.616013 322.776093
[L_front_hand]
8 241.149185 -0.042021 -3.300071 -178.814362 -1.936647 -22.908022 241.171753
9 241.149185 -0.042021 -3.300071 -178.837830 -1.951295 -22.183525 241.171753
[L_weapon_bone]
8 156.183838 0.000000 0.000000 0.001284 0.001965 -23.658070 156.183838
9 156.183838 0.000000 0.000000 0.001183 0.002027 -29.466957 156.183838
[L_front_hand01_01]
8 86.095154 20.947098 -0.655860 -0.349809 -0.489725 73.275398 88.609184
9 86.095154 20.947098 -0.655860 -0.343536 -0.494286 72.740097 88.609184
[L_front_hand02_01]
8 86.935165 -11.437475 24.513514 151.228317 -58.922241 -57.683537 91.046425
9 86.935165 -11.437475 24.513514 150.451904 -58.658855 -56.776970 91.046425
[L_front_hand03_01]
8 86.637497 -14.123976 -20.424902 -150.974472 57.140579 -59.221375 90.126129
9 86.637497 -14.123976 -20.424902 -150.254028 56.881126 -58.362083 90.126129
[L_front_hand01_02]
8 71.020905 -0.000179 0.000030 0.001534 0.001777 -8.378850 71.020905
9 71.020905 -0.000179 0.000030 0.001534 0.001777 -8.378850 71.020905
[L_front_hand02_02]
8 71.020927 -0.000119 0.000060 0.001534 0.001777 -8.378850 71.020927
9 71.020927 -0.000119 0.000060 0.001534 0.001777 -8.378850 71.020927
[L_front_hand03_02]
8 71.020905 -0.000060 0.000060 0.001534 0.001777 -8.378850 71.020905
9 71.020905 -0.000060 0.000060 0.001534 0.001777 -8.378850 71.020905
[R_forearm]
8 322.776428 -0.000060 0.000030 0.179550 -0.112148 -59.291473 322.776428
9 322.776428 -0.000060 0.000030 0.172118 -0.126836 -54.087471 322.776428
[R_front_hand]
8 238.847015 -0.006795 2.210259 -2.635298 -10.645461 -26.312506 238.857239
9 238.847015 -0.006795 2.210259 -2.635298 -10.645461 -26.312506 238.857239
[R_weapon_bone]
8 155.664093 0.002503 -0.000030 0.003487 0.001180 -90.988930 155.664078
9 155.664093 0.002503 -0.000030 0.003487 0.001180 -90.988930 155.664078
[R_front_hand01_01]
8 87.624611 14.231146 22.918642 -141.814392 -54.852394 46.569645 91.683487
9 87.624611 14.231146 22.918642 -154.633499 -59.950619 61.746044 91.683487
[R_front_hand02_01]
8 89.356956 14.367283 -19.491137 142.507797 53.258816 49.159946 92.579636
9 89.356956 14.367283 -19.491137 154.602661 58.302849 63.744389 92.579636
[R_front_hand03_01]
8 87.286232 -22.307278 -0.143439 0.089381 -0.443277 -66.167526 90.091743
9 87.286232 -22.307278 -0.143439 0.162155 -0.423168 -75.767921 90.091743
[R_front_hand01_02]
8 71.020905 0.000060 0.000119 0.002225 0.000748 52.855904 71.020905
9 71.020905 0.000060 0.000119 0.001777 0.001534 8.377223 71.020905
[R_front_hand02_02]
8 71.020844 -0.000030 -0.000119 0.002225 0.000748 52.855904 71.020836
9 71.020844 -0.000030 -0.000119 0.001777 0.001534 8.377223 71.020836
[R_front_hand03_02]
8 71.020905 0.000000 0.000030 0.002225 0.000748 52.855904 71.020905
9 71.020905 0.000000 0.000030 0.001777 0.001534 8.377223 71.020905
[null_rope01_connect]
8 328.732483 0.000000 -0.000238 -155.833359 -33.453114 -122.373123 328.732483
9 328.732483 0.000000 -0.000238 -150.963501 -28.754301 -119.874588 328.732483
[Rope1_Seg01]
8 -0.000038 -0.000114 0.000099 80.979034 -35.312843 -153.369217 0.000156
9 -0.000038 -0.000114 0.000099 82.061356 -37.189854 -155.106735 0.000156
[Rope1_Seg02]
8 139.999863 -0.000179 0.000000 2.450876 -4.870096 -3.207413 139.999863
9 139.999863 -0.000179 0.000000 1.864451 -4.706484 -2.317691 139.999863
[Rope1_Seg03]
8 139.999924 0.000060 -0.000060 5.531309 -11.628428 -7.080399 139.999924
9 139.999924 0.000060 -0.000060 3.857802 -10.863244 -4.984395 139.999924
[Rope1_Seg04]
8 139.999924 -0.000060 -0.000119 17.455893 -48.446461 -24.898199 139.999924
9 139.999924 -0.000060 -0.000119 8.902979 -49.647434 -16.375906 139.999924
[Rope1_Seg05]
8 139.999832 0.000119 -0.000060 2.622103 -21.458055 -23.909197 139.999832
9 139.999832 0.000119 -0.000060 0.980037 -23.462452 -30.419525 139.999832
[Rope1_Seg06]
8 139.999954 0.000119 -0.000060 0.105166 -1.959099 -6.914470 139.999954
9 139.999954 0.000119 -0.000060 -0.102458 -1.127702 -9.062779 139.999954
[Rope1_Seg07]
8 139.999985 0.000060 0.000000 0.191983 -2.051666 -2.890833 139.999985
9 139.999985 0.000060 0.000000 0.199481 -1.728932 -3.597870 139.999985
[Rope1_Seg09]
8 121.602913 0.000119 -0.000089 -91.320419 -1.360152 0.844615 121.602913
9 121.602913 0.000119 -0.000089 -91.078087 -1.358405 0.845201 121.602913
[L_mid_hand01]
8 103.859421 1.038730 8.195221 104.355827 -1.017642 -0.792002 104.187431
9 103.859421 1.038730 8.195221 104.352036 0.341478 -0.444584 104.187431
[L_mid_hand02]
8 105.572853 -4.139662 -10.864139 -135.688309 4.878249 -4.384167 106.211075
9 105.572853 -4.139662 -10.864139 -135.608444 3.905688 -3.381057 106.211075
[L_mid_hand03]
8 104.641464 17.579376 -3.913581 -18.765369 0.125341 4.267874 106.179977
9 104.641464 17.579376 -3.913581 -18.761518 -0.324361 2.942913 106.179977
[null_rope02_connect]
8 328.732849 0.000179 -0.000119 -124.253723 9.726800 42.467781 328.732849
9 328.732849 0.000179 -0.000119 -126.188728 10.635011 42.896481 328.732849
[Rope2_Seg01]
8 -0.000040 0.000101 0.000000 -51.722523 23.313206 37.745773 0.000109
9 -0.000035 0.000101 0.000000 -53.889992 26.357533 34.299572 0.000107
[Rope2_Seg02]
8 139.999741 -0.000060 -0.000119 -2.900201 -8.361670 16.353817 139.999756
9 139.999741 -0.000060 -0.000119 -3.294807 -10.296051 15.204110 139.999756
[Rope2_Seg03]
8 140.000107 0.000030 0.000000 -0.290109 -9.558907 13.051949 140.000107
9 140.000107 0.000030 0.000000 -0.792453 -11.754579 11.317931 140.000107
[Rope2_Seg04]
8 139.999802 0.000000 -0.000060 3.618756 -6.656982 17.025381 139.999802
9 139.999802 0.000000 -0.000060 2.774095 -7.818112 15.881182 139.999802
[Rope2_Seg05]
8 139.999985 -0.000060 0.000119 11.002387 -1.819113 21.334980 139.999985
9 139.999985 -0.000060 0.000119 10.081651 -2.019645 20.245953 139.999985
[Rope2_Seg06]
8 139.999893 -0.000030 -0.000119 7.424133 0.754193 10.696943 139.999893
9 139.999893 -0.000030 -0.000119 6.749362 0.238891 10.120732 139.999893
[Rope2_Seg07]
8 139.999893 0.000060 -0.000060 4.566486 1.104453 5.898962 139.999893
9 139.999893 0.000060 -0.000060 4.271061 0.696243 5.686875 139.999893
[Rope2_Seg09]
8 121.338966 0.000089 -0.000060 33.793236 -1.359788 -0.847141 121.338966
9 121.338966 0.000089 -0.000060 33.793236 -1.359788 -0.847141 121.338966
[R_mid_hand01]
8 104.680779 11.144459 -10.335981 -47.384247 2.963531 5.452612 105.778534
9 104.680779 11.144459 -10.335981 -46.888985 8.340994 10.460958 105.778534
[R_mid_hand02]
8 104.070427 2.443552 8.231699 75.626297 -2.250015 1.111096 104.424065
9 104.070427 2.443552 8.231699 75.441551 -9.350805 2.950356 104.424065
[R_mid_hand03]
8 106.028137 -11.221827 -5.996406 -164.381927 2.495988 -6.140535 106.788818
9 106.028137 -11.221827 -5.996406 -164.808060 4.446084 -13.219695 106.788818
[spine02]
8 129.756927 0.001550 0.000119 0.458533 -4.033947 -14.313973 129.756927
9 129.756927 0.001550 0.000119 0.459940 -4.033787 -14.353923 129.756927
[spine03]
8 78.614914 0.079997 -4.899060 2.109795 3.717537 19.725349 78.767448
9 78.614883 0.080047 -4.899058 2.128623 3.705290 20.032192 78.767426
[pelvis]
8 169.435242 0.051022 0.000000 -0.061863 -0.179750 14.977891 169.435257
9 169.435242 0.051022 0.000000 -0.061969 -0.179714 15.045234 169.435257
[null_rope03_connect]
8 -1.257226 -2.466202 137.391083 121.319229 -61.272427 -41.479031 137.418976
9 -1.257226 -2.466202 137.391083 124.768433 -61.126698 -44.574078 137.418976
[null_rope04_connect]
8 -1.259640 -2.480268 -137.844437 121.319229 -61.272427 -41.479031 137.872513
9 -1.259640 -2.480268 -137.844437 124.768433 -61.126698 -44.574078 137.872513
[Rope3_Seg01]
8 0.000000 0.000000 0.000000 -128.598831 33.362919 -69.045891 0.000000
9 0.000000 0.000000 0.000000 -129.030396 37.155235 -69.519096 0.000000
[Rope3_Seg02]
8 139.999924 -0.000119 0.000060 1.072236 -16.616922 -1.614469 139.999924
9 139.999924 -0.000119 0.000060 0.089400 -12.814587 0.016512 139.999924
[Rope3_Seg03]
8 139.999924 -0.000119 0.000119 6.585402 -24.649271 -3.279225 139.999924
9 139.999924 -0.000119 0.000119 2.850658 -20.162552 -0.228871 139.999924
[Rope3_Seg04]
8 139.999924 0.000119 0.000000 11.025467 -21.850449 -1.520652 139.999924
9 139.999924 0.000119 0.000000 5.784482 -18.369402 -1.942648 139.999924
[Rope3_Seg05]
8 139.999924 -0.000238 0.000060 19.343594 -28.061888 12.734077 139.999924
9 139.999924 -0.000238 0.000060 13.463370 -27.240358 8.135596 139.999924
[Rope3_Seg06]
8 139.999893 -0.000119 -0.000060 10.321873 -13.104970 15.182662 139.999893
9 139.999893 -0.000119 -0.000060 11.424585 -20.183216 15.990725 139.999893
[Rope3_Seg07]
8 139.999771 0.000060 -0.000119 3.614493 -3.950779 6.192796 139.999771
9 139.999771 0.000060 -0.000119 4.394692 -6.398999 7.474874 139.999771
[Rope3_Seg08]
8 139.999985 -0.000060 0.000000 1.982896 -1.822318 3.309854 139.999985
9 139.999985 -0.000060 0.000000 2.194148 -2.695219 3.587402 139.999985
[Rope3_Seg09]
8 90.185997 -0.000179 -0.000060 77.453667 -1.359769 -0.847405 90.185997
9 90.185997 -0.000179 -0.000060 75.470360 -1.359978 -0.850243 90.185997
[R_rear_hand01]
8 103.366196 -6.073594 -10.757982 -156.049316 6.070421 -2.795873 104.101845
9 103.366196 -6.073594 -10.757982 -156.303818 7.047812 -5.016648 104.101845
[R_rear_hand02]
8 100.509819 12.039542 -7.992327 -38.708435 1.958054 5.461190 101.543350
9 100.509819 12.039542 -7.992327 -38.618435 3.465866 7.345694 101.543350
[R_rear_hand03]
8 101.539970 5.215704 5.435467 84.307625 -2.361037 4.099038 101.819031
9 101.539970 5.215704 5.435467 84.293983 -4.764457 4.337548 101.819031
[Rope4_Seg01]
8 0.000000 0.000000 0.000000 40.223171 -33.158546 -85.719093 0.000000
9 0.000000 0.000000 0.000000 39.760494 -35.264614 -85.171272 0.000000
[Rope4_Seg02]
8 139.999985 0.000060 0.000119 0.238448 -5.217841 -3.673439 139.999985
9 139.999985 0.000060 0.000119 0.199824 -4.362444 -3.381847 139.999985
[Rope4_Seg03]
8 139.999924 0.000000 -0.000238 0.402525 -9.507731 -6.725449 139.999924
9 139.999924 0.000000 -0.000238 0.282508 -7.904076 -6.143267 139.999924
[Rope4_Seg04]
8 139.999985 0.000000 0.000119 0.415391 -20.230856 -16.374331 139.999985
9 139.999985 0.000000 0.000119 0.140157 -17.938517 -15.604872 139.999985
[Rope4_Seg05]
8 139.999802 -0.000060 -0.000119 -13.664096 -24.589073 -23.215355 139.999802
9 139.999802 -0.000060 -0.000119 -17.587187 -26.199402 -28.676062 139.999802
[Rope4_Seg06]
8 139.999924 0.000000 0.000060 -120.776627 -18.708246 -18.899225 139.999924
9 139.999924 0.000000 0.000060 -101.402718 -16.426205 -22.221169 139.999924
[Rope4_Seg07]
8 139.999802 0.000000 0.000000 -36.941235 28.288967 -10.312744 139.999802
9 139.999802 0.000000 0.000000 -48.925224 27.009571 -19.711926 139.999802
[Rope4_Seg08]
8 139.999924 0.000000 0.000119 -2.223470 13.457442 5.180515 139.999924
9 139.999924 0.000000 0.000119 -3.015672 15.369046 4.773356 139.999924
[Rope4_Seg09]
8 90.185791 0.000060 0.000060 -145.730515 2.230968 0.850098 90.185791
9 90.185791 0.000060 0.000060 -147.615204 2.228861 0.849914 90.185791
[L_rear_hand01]
8 101.696655 -8.392275 -7.654577 -38.746338 0.246087 177.290192 102.329041
9 101.696655 -8.392275 -7.654577 -38.519966 -4.554153 171.285233 102.329041
[L_rear_hand02]
8 102.726799 -1.568258 5.773216 84.315163 -1.142782 176.247437 102.900848
9 102.726799 -1.568258 5.773216 84.274826 6.499032 175.483887 102.900848
[L_rear_hand03]
8 104.552910 9.721220 -10.420293 -155.747955 -4.630851 179.564774 105.519653
9 104.552910 9.721220 -10.420293 -156.508423 -7.746345 -173.370834 105.519653
